<svg width="139" height="59" viewBox="0 0 139 59" fill="none" xmlns="http://www.w3.org/2000/svg">
<g clip-path="url(#clip0_14988_24360)">
<path d="M20.9823 2.01229C19.3901 0.731812 17.0495 0.0791016 14.0229 0.0791016C10.9963 0.0791016 8.58085 0.752599 7.15071 2.08712C5.71225 3.45074 4.98471 5.54191 4.98471 8.29826V12.1688C4.98471 13.5199 5.27157 14.7713 5.83698 15.898C4.3029 16.4966 3.03074 17.3281 2.03296 18.3882C0.685969 19.8558 0 21.5811 0 23.5143V29.4053H4.17818V23.9716C4.17818 22.5373 4.73942 21.3982 5.90349 20.4836C6.90542 19.6687 8.22747 19.1782 9.82807 19.0202C10.988 19.4276 12.1437 19.6313 13.2704 19.6313H15.0414C17.5733 19.6313 19.6063 18.9994 21.0863 17.7605C22.6827 16.4592 23.4934 14.3348 23.4934 11.4454V8.29826C23.4934 5.4255 22.6453 3.30939 20.9865 2.01229H20.9823ZM19.2487 8.49366V11.2791C19.2487 12.7924 18.8829 13.8692 18.1595 14.4886C17.4236 15.133 16.193 15.4781 14.4968 15.5196C12.5345 15.582 11.1293 15.2245 10.2812 14.4512C9.562 13.8401 9.19615 12.7716 9.19615 11.2791V8.49366C9.19615 6.90554 9.57031 5.75394 10.302 5.07213C11.0503 4.37784 12.3599 4.02446 14.1892 4.02446C16.0184 4.02446 17.4361 4.36121 18.1761 5.00561C18.887 5.66248 19.2487 6.83902 19.2487 8.49366Z" fill="#1E2953"/>
<path d="M35.1631 19.6345H70.7296V15.5229H64.0154C62.5353 15.5229 61.4711 15.2277 60.8433 14.6332C60.2654 14.1052 59.9702 13.1531 59.9702 11.8061V8.33057C59.9702 6.79234 60.2737 5.69479 60.8682 5.08781C61.4835 4.47251 62.4979 4.15655 63.8823 4.15655H70.7254V0.207031H63.1922C58.353 0.207031 55.7921 2.90102 55.7921 8.00214V12.1013C55.7921 13.4275 55.9542 14.5708 56.2743 15.5229H36.1276" fill="#1E2953"/>
<path d="M12.7341 33.9902H9.68254C8.85522 33.9902 8.21498 34.4309 7.8616 35.2873L0.157959 58.4315H4.78513L7.04675 51.2517H15.399L17.6606 58.4315H22.2545L14.5508 35.2873C14.2765 34.4642 13.6113 33.9902 12.7299 33.9902H12.7341ZM14.1102 47.2357H8.30644L10.8882 39.0789L11.2 38.0271C11.2998 38.368 11.412 38.7213 11.5284 39.0914L14.106 47.2398L14.1102 47.2357Z" fill="#1E2953"/>
<path d="M42.1723 37.4575V33.9902H25.4347V37.973H36.8051L25.2393 54.9684V58.4315H42.401V54.4529H30.6356L42.1723 37.4575Z" fill="#1E2953"/>
<path d="M69.7443 35.9068C69.6778 34.7053 68.9461 33.9902 67.7862 33.9902H64.506C63.5166 33.9902 62.8098 34.5265 62.5146 35.4994L58.2159 49.4433C58.0912 49.8631 57.9373 50.4244 57.7627 51.1228C57.4634 50.017 57.3595 49.647 57.3137 49.5015L53.0191 35.5035C52.724 34.5265 52.0422 33.9902 51.0943 33.9902H47.7476C46.6001 33.9902 45.856 34.7011 45.7562 35.9193L44.8374 58.4315H49.2442L49.9926 39.6942L54.4036 54.2908C54.6946 55.2927 55.4263 55.8415 56.4615 55.8415H59.0848C60.0784 55.8415 60.7893 55.2885 61.0762 54.2949L65.5246 39.5861L66.3062 58.4315H70.7172L69.7319 35.9068H69.7443Z" fill="#1E2953"/>
<path d="M81.9834 34.8839C81.5469 36.6758 82.9022 38.4052 84.7481 38.4052H87.4795L94.5304 9.55711C94.9711 7.75281 96.5883 6.4848 98.4425 6.4848H121.046L121.77 3.51643C122.206 1.72459 120.851 -0.00488281 119.005 -0.00488281H92.7427C91.4332 -0.00488281 90.2899 0.893114 89.9781 2.16527L81.9793 34.8798" fill="#C4C4C4"/>
<path d="M134.051 13.594H104.841C102.987 13.594 101.369 14.862 100.929 16.6663L91.9362 53.4509C91.8822 53.6671 91.8572 53.8833 91.8364 54.0953L105.086 40.8457H101.773C100.7 40.8457 99.8269 39.9768 99.8269 38.9V37.9563C99.8269 36.8837 100.696 36.0106 101.773 36.0106H111.372C112.445 36.0106 113.318 36.8795 113.318 37.9563V47.5557C113.318 48.6283 112.449 49.5014 111.372 49.5014H110.428C109.356 49.5014 108.483 48.6325 108.483 47.5557V44.2797L94.547 58.2153C94.9545 58.3525 95.3868 58.4314 95.8441 58.4314H125.054C126.908 58.4314 128.525 57.1634 128.966 55.3591L137.959 18.5746C138.578 16.0385 136.657 13.5898 134.046 13.5898L134.051 13.594Z" fill="#1E2953"/>
<path d="M38.1523 0.207031H33.5583V4.31038H38.1523V0.207031Z" fill="#1E2953"/>
<path d="M33.8866 7.77441V21.5894C33.8866 23.0445 33.6995 25.435 30.4485 25.435C29.8248 25.435 26.9729 25.4974 25.3931 25.514V29.3388C26.3742 29.3346 29.3093 29.3222 30.5482 29.3222C36.1566 29.3222 38.0232 25.8009 38.0232 21.7848V7.77441H33.8866Z" fill="#1E2953"/>
</g>
<defs>
<clipPath id="clip0_14988_24360">
<rect width="138.079" height="58.4321" fill="white"/>
</clipPath>
</defs>
</svg>
