<svg width="498" height="80" viewBox="0 0 498 80" fill="none" xmlns="http://www.w3.org/2000/svg">
<path d="M95 2.5L106.5 6.5L81 76L69.5 71L95 2.5Z" fill="url(#paint0_linear_809_160)"/>
<path d="M107 2.5L95.5 6.5L121 76L132.5 71L107 2.5Z" fill="url(#paint1_linear_809_160)"/>
<path d="M62.5823 56.1841C58.6027 62.4524 52.7288 67.2437 45.8404 69.8404C38.952 72.4371 31.42 72.6993 24.3724 70.5879C17.3248 68.4765 11.141 64.1051 6.74721 58.1284C2.35344 52.1517 -0.0137927 44.8914 6.04568e-05 37.435C0.0139136 29.9785 2.40811 22.7274 6.82405 16.7675C11.24 10.8076 17.44 6.45988 24.4954 4.37546C31.5508 2.29103 39.0818 2.58212 45.9605 5.20513C52.8392 7.82814 58.6952 12.6419 62.6515 18.9254L47.8088 28.5478C45.902 25.5195 43.0797 23.1994 39.7644 21.9353C36.4492 20.6711 32.8196 20.5308 29.4192 21.5354C26.0188 22.54 23.0307 24.6354 20.9024 27.5078C18.7741 30.3802 17.6202 33.875 17.6135 37.4687C17.6068 41.0623 18.7477 44.5615 20.8653 47.442C22.9829 50.3225 25.9633 52.4294 29.3599 53.447C32.7565 54.4646 36.3867 54.3382 39.7066 53.0867C43.0265 51.8352 45.8574 49.526 47.7754 46.5049L62.5823 56.1841Z" fill="url(#paint2_linear_809_160)"/>
<path d="M76 38H126V50H76V38Z" fill="url(#paint3_linear_809_160)"/>
<path d="M146 60H185V74H146V60Z" fill="url(#paint4_linear_809_160)"/>
<path d="M146 5H161V74H146V5Z" fill="url(#paint5_linear_809_160)"/>
<path d="M223.285 29.4319L212.535 38.9345L186.706 9.71346L197.457 0.2108L223.285 29.4319Z" fill="url(#paint6_linear_809_160)"/>
<path d="M235.969 0L246.991 9.18646L222.022 39.1453L211 29.9588L235.969 0Z" fill="url(#paint7_linear_809_160)"/>
<path d="M211 35H224V74H211V35Z" fill="url(#paint8_linear_809_160)"/>
<path d="M264 5.00003H278V74H264V5.00003Z" fill="url(#paint9_linear_809_160)"/>
<path d="M258.039 8.49661L270.103 1.39282L311.841 72.2731L299.777 79.3769L258.039 8.49661Z" fill="url(#paint10_linear_809_160)"/>
<path d="M293 5.00003H307V74H293V5.00003Z" fill="url(#paint11_linear_809_160)"/>
<path d="M324 5.00001H338V74H324V5.00001Z" fill="url(#paint12_linear_809_160)"/>
<path d="M337.5 5C346.65 5.00001 355.425 8.63482 361.895 15.1048C368.365 21.5748 372 30.35 372 39.5C372 48.65 368.365 57.4252 361.895 63.8952C355.425 70.3652 346.65 74 337.5 74V57.9453C342.392 57.9453 347.084 56.002 350.543 52.5428C354.002 49.0837 355.945 44.392 355.945 39.5C355.945 34.608 354.002 29.9164 350.543 26.4572C347.084 22.998 342.392 21.0547 337.5 21.0547V5Z" fill="url(#paint13_linear_809_160)"/>
<path d="M419.5 46.5L409 54L422 75.5H438.5L419.5 46.5Z" fill="url(#paint14_linear_809_160)"/>
<path d="M386 5H400V74H386V5Z" fill="url(#paint15_linear_809_160)"/>
<path d="M400 5C406.1 5 411.95 7.42321 416.263 11.7365C420.577 16.0499 423 21.9 423 28C423 34.1 420.577 39.9501 416.263 44.2635C411.95 48.5768 406.1 51 400 51V5Z" fill="url(#paint16_linear_809_160)"/>
<path d="M488 21.5001C485.242 24.2585 482.681 23.4062 480.718 21.4863C478.059 18.8872 471.955 15.6449 468.254 15.9962C453.394 17.4066 461.601 33.3661 475.564 38.64C477.024 39.1916 478.449 39.7157 479.811 40.2052C485.197 42.1421 490.686 44.5322 494.084 49.1382C502.625 60.7155 494.248 70.8821 488 75C472 79 457 76.6667 451.5 75C440.7 66.6 445 59.8333 448.5 57.5C452.5 56.5 454 58 456.5 61.5C459 65 476.5 65.5 483 61.5C488.2 58.3 475.167 52.5 468 50C437.6 43.6 438.333 26 442.5 18.0001C451.3 -0.79994 473.167 0.166725 483 3.00006C493.4 10.2001 490.667 18.3334 488 21.5001Z" fill="url(#paint17_linear_809_160)"/>
<defs>
<linearGradient id="paint0_linear_809_160" x1="1.25098e-07" y1="17.5" x2="498" y2="56" gradientUnits="userSpaceOnUse">
<stop stop-color="#FFA72F"/>
<stop offset="1" stop-color="#FF6210"/>
</linearGradient>
<linearGradient id="paint1_linear_809_160" x1="1.25098e-07" y1="17.5" x2="498" y2="56" gradientUnits="userSpaceOnUse">
<stop stop-color="#FFA72F"/>
<stop offset="1" stop-color="#FF6210"/>
</linearGradient>
<linearGradient id="paint2_linear_809_160" x1="1.25098e-07" y1="17.5" x2="498" y2="56" gradientUnits="userSpaceOnUse">
<stop stop-color="#FFA72F"/>
<stop offset="1" stop-color="#FF6210"/>
</linearGradient>
<linearGradient id="paint3_linear_809_160" x1="1.25098e-07" y1="17.5" x2="498" y2="56" gradientUnits="userSpaceOnUse">
<stop stop-color="#FFA72F"/>
<stop offset="1" stop-color="#FF6210"/>
</linearGradient>
<linearGradient id="paint4_linear_809_160" x1="1.25098e-07" y1="17.5" x2="498" y2="56" gradientUnits="userSpaceOnUse">
<stop stop-color="#FFA72F"/>
<stop offset="1" stop-color="#FF6210"/>
</linearGradient>
<linearGradient id="paint5_linear_809_160" x1="1.25098e-07" y1="17.5" x2="498" y2="56" gradientUnits="userSpaceOnUse">
<stop stop-color="#FFA72F"/>
<stop offset="1" stop-color="#FF6210"/>
</linearGradient>
<linearGradient id="paint6_linear_809_160" x1="1.25098e-07" y1="17.5" x2="498" y2="56" gradientUnits="userSpaceOnUse">
<stop stop-color="#FFA72F"/>
<stop offset="1" stop-color="#FF6210"/>
</linearGradient>
<linearGradient id="paint7_linear_809_160" x1="1.25098e-07" y1="17.5" x2="498" y2="56" gradientUnits="userSpaceOnUse">
<stop stop-color="#FFA72F"/>
<stop offset="1" stop-color="#FF6210"/>
</linearGradient>
<linearGradient id="paint8_linear_809_160" x1="1.25098e-07" y1="17.5" x2="498" y2="56" gradientUnits="userSpaceOnUse">
<stop stop-color="#FFA72F"/>
<stop offset="1" stop-color="#FF6210"/>
</linearGradient>
<linearGradient id="paint9_linear_809_160" x1="1.25098e-07" y1="17.5" x2="498" y2="56" gradientUnits="userSpaceOnUse">
<stop stop-color="#FFA72F"/>
<stop offset="1" stop-color="#FF6210"/>
</linearGradient>
<linearGradient id="paint10_linear_809_160" x1="1.25098e-07" y1="17.5" x2="498" y2="56" gradientUnits="userSpaceOnUse">
<stop stop-color="#FFA72F"/>
<stop offset="1" stop-color="#FF6210"/>
</linearGradient>
<linearGradient id="paint11_linear_809_160" x1="1.25098e-07" y1="17.5" x2="498" y2="56" gradientUnits="userSpaceOnUse">
<stop stop-color="#FFA72F"/>
<stop offset="1" stop-color="#FF6210"/>
</linearGradient>
<linearGradient id="paint12_linear_809_160" x1="1.25098e-07" y1="17.5" x2="498" y2="56" gradientUnits="userSpaceOnUse">
<stop stop-color="#FFA72F"/>
<stop offset="1" stop-color="#FF6210"/>
</linearGradient>
<linearGradient id="paint13_linear_809_160" x1="1.25098e-07" y1="17.5" x2="498" y2="56" gradientUnits="userSpaceOnUse">
<stop stop-color="#FFA72F"/>
<stop offset="1" stop-color="#FF6210"/>
</linearGradient>
<linearGradient id="paint14_linear_809_160" x1="1.25098e-07" y1="17.5" x2="498" y2="56" gradientUnits="userSpaceOnUse">
<stop stop-color="#FFA72F"/>
<stop offset="1" stop-color="#FF6210"/>
</linearGradient>
<linearGradient id="paint15_linear_809_160" x1="1.25098e-07" y1="17.5" x2="498" y2="56" gradientUnits="userSpaceOnUse">
<stop stop-color="#FFA72F"/>
<stop offset="1" stop-color="#FF6210"/>
</linearGradient>
<linearGradient id="paint16_linear_809_160" x1="1.25098e-07" y1="17.5" x2="498" y2="56" gradientUnits="userSpaceOnUse">
<stop stop-color="#FFA72F"/>
<stop offset="1" stop-color="#FF6210"/>
</linearGradient>
<linearGradient id="paint17_linear_809_160" x1="1.25098e-07" y1="17.5" x2="498" y2="56" gradientUnits="userSpaceOnUse">
<stop stop-color="#FFA72F"/>
<stop offset="1" stop-color="#FF6210"/>
</linearGradient>
</defs>
</svg>
