<svg width="145" height="68" viewBox="0 0 145 68" fill="none" xmlns="http://www.w3.org/2000/svg">
<path d="M23.2797 2.8053C25.6865 1.42029 28.4188 0.690918 31.2005 0.690918C33.9821 0.690918 36.7144 1.42029 39.1212 2.8053L54.4802 11.6082C56.8829 12.9858 58.8791 14.9659 60.2691 17.3503C61.6592 19.7347 62.3943 22.4399 62.4009 25.1951V42.808C62.3943 45.5632 61.6592 48.2684 60.2691 50.6528C58.8791 53.0373 56.8829 55.0173 54.4802 56.3949L39.1212 65.1978C36.7144 66.5828 33.9821 67.3122 31.2005 67.3122C28.4188 67.3122 25.6865 66.5828 23.2797 65.1978L7.92073 56.3949C5.51807 55.0173 3.52185 53.0373 2.13181 50.6528C0.74176 48.2684 0.0066326 45.5632 0 42.808V25.2165C0.0066326 22.4613 0.74176 19.7562 2.13181 17.3718C3.52185 14.9873 5.51807 13.0072 7.92073 11.6296L23.2797 2.8053Z" fill="#30B0C7"/>
<path d="M29.7222 52.5351C16.2233 52.8283 8.53905 41.6905 6.33934 29.4382C6.13659 28.3074 5.9922 27.1669 5.90674 26.0213C9.78771 26.2437 13.633 26.8878 17.3745 27.9424C22.5072 29.4675 27.5005 32.2465 30.6094 36.7412C32.1239 38.9714 33.1654 41.4883 33.6698 44.1365C34.1743 46.7848 34.1309 49.5083 33.5423 52.1391L33.0877 51.6112C34.7001 51.492 36.2953 51.202 37.8464 50.746C48.9256 47.2778 53.9776 39.1462 55.0701 28.155C55.1287 27.3789 55.1287 26.5994 55.0701 25.8233L55.73 26.4026C52.5528 26.7179 49.4215 27.3919 46.3959 28.4116C38.741 30.9633 32.7944 36.6605 31.394 44.7848C31.1498 46.1121 31.0442 47.4611 31.0787 48.8102C31.0787 49.1988 31.3646 52.1098 31.4086 52.5424L29.2896 50.13C24.9782 45.276 21.576 39.0655 21.8473 32.4078C22.1186 25.75 25.924 19.6128 31.1007 15.6094L31.7093 15.1621L32.2445 15.668C39.0709 21.9299 43.419 30.9706 40.0168 40.1434C39.0141 42.967 37.4503 45.5585 35.4194 47.7617L35.2728 47.6224C37.0978 45.3338 38.4646 42.7148 39.2982 39.9088C42.0259 31.022 37.6851 22.7877 31.0273 17.0025L32.1639 17.0685C29.8168 18.9735 27.8535 21.3076 26.3786 23.9462C24.8962 26.5534 24.0726 29.4831 23.9794 32.4808C23.8861 35.4785 24.5259 38.4536 25.8434 41.1479C27.1565 43.9027 28.8389 46.4657 30.844 48.7662L29.0183 49.5434C28.9341 47.8231 29.0647 46.0989 29.4069 44.4108C32.1272 31.3666 43.7636 25.6987 55.6054 25.1781L56.2579 25.1535V25.75C56.2579 32.2465 54.3515 38.9116 50.1868 43.9782C45.912 49.2648 39.1882 51.8971 32.5891 52.5277L32.7065 51.9338C33.2995 48.5923 32.9933 45.1533 31.8192 41.9691C29.4729 35.4654 23.2624 31.5352 16.8539 29.6801C13.5718 28.736 10.2047 28.1171 6.80128 27.8324L7.73982 26.9085C8.35574 32.9064 10.2988 38.9775 13.9723 43.8096C16.7586 47.4757 19.2149 49.2428 25.0295 51.2812C26.5683 51.7828 28.1522 52.134 29.7588 52.3298V52.5277L29.7222 52.5351Z" fill="white"/>
<path fill-rule="evenodd" clip-rule="evenodd" d="M79.9748 17.9836C80.1678 18.0099 80.3642 17.99 80.548 17.9254C80.7318 17.8609 80.8975 17.7536 81.0317 17.6124C81.1658 17.4712 81.2645 17.3001 81.3195 17.1133C81.3746 16.9264 81.3844 16.7292 81.3483 16.5378C81.3595 16.3549 81.3311 16.1717 81.265 16.0008C81.1989 15.8298 81.0966 15.6752 80.9651 15.5475C80.8374 15.416 80.6828 15.3138 80.5118 15.2476C80.3409 15.1815 80.1577 15.1531 79.9748 15.1643C79.7866 15.1359 79.5944 15.1515 79.4133 15.21C79.2322 15.2685 79.0671 15.3683 78.9312 15.5014C78.7952 15.6346 78.692 15.7975 78.6297 15.9774C78.5675 16.1572 78.5478 16.3491 78.5724 16.5378C78.5646 16.728 78.5944 16.9179 78.6601 17.0965C78.7259 17.2752 78.8263 17.439 78.9555 17.5788C79.0885 17.7127 79.2476 17.8177 79.423 17.8874C79.5984 17.957 79.7862 17.9898 79.9748 17.9836ZM83.7863 17.9248C83.6025 17.9893 83.406 18.0092 83.2131 17.9829C83.0248 17.9929 82.8365 17.9641 82.6599 17.8982C82.4833 17.8323 82.3222 17.7307 82.1866 17.5998C82.0586 17.4595 81.9595 17.2953 81.895 17.1167C81.8305 16.9381 81.8019 16.7485 81.8106 16.5588C81.8026 16.3769 81.8317 16.1952 81.8964 16.0249C81.961 15.8546 82.0598 15.6993 82.1866 15.5685C82.3196 15.4326 82.4797 15.3263 82.6566 15.2566C82.8335 15.1868 83.0231 15.1552 83.2131 15.1637C83.396 15.1524 83.5792 15.1808 83.7501 15.247C83.9211 15.3131 84.0757 15.4154 84.2034 15.5468C84.3349 15.6745 84.4371 15.8292 84.5033 16.0001C84.5694 16.171 84.5978 16.3542 84.5866 16.5372C84.6227 16.7285 84.6129 16.9258 84.5578 17.1126C84.5028 17.2994 84.4041 17.4705 84.27 17.6117C84.1358 17.7529 83.97 17.8602 83.7863 17.9248ZM105.76 18.4107C105.953 18.437 106.15 18.4171 106.333 18.3525C106.517 18.288 106.683 18.1807 106.817 18.0395C106.951 17.8983 107.05 17.7272 107.105 17.5404C107.16 17.3535 107.17 17.1563 107.134 16.9649C107.145 16.7809 107.117 16.5964 107.051 16.4242C106.985 16.252 106.883 16.0962 106.751 15.9673C106.622 15.8374 106.467 15.7362 106.296 15.6701C106.126 15.6041 105.943 15.5748 105.76 15.5842C105.573 15.5756 105.386 15.6052 105.211 15.671C105.036 15.7369 104.876 15.8377 104.741 15.9673C104.614 16.0992 104.514 16.2557 104.45 16.4273C104.385 16.5988 104.356 16.7818 104.365 16.9649C104.354 17.1537 104.382 17.3427 104.447 17.5204C104.511 17.6981 104.611 17.8608 104.741 17.9987C104.874 18.1335 105.032 18.2396 105.208 18.3105C105.383 18.3814 105.571 18.4155 105.76 18.4107ZM144.999 16.2927L142.331 17.7096V29.9482H144.999V16.2927ZM112.399 18.6277C112.216 18.6922 112.019 18.7122 111.826 18.6859C111.637 18.6906 111.449 18.6565 111.274 18.5857C111.098 18.5148 110.94 18.4086 110.807 18.2738C110.677 18.1363 110.575 17.9738 110.509 17.7962C110.444 17.6185 110.414 17.4293 110.424 17.2401C110.416 17.0565 110.447 16.8733 110.513 16.7018C110.578 16.5303 110.679 16.374 110.807 16.2425C110.942 16.1128 111.102 16.012 111.277 15.9462C111.452 15.8803 111.639 15.8508 111.826 15.8593C112.009 15.85 112.192 15.8793 112.362 15.9453C112.533 16.0113 112.688 16.1126 112.817 16.2425C112.947 16.3724 113.049 16.5285 113.115 16.7004C113.181 16.8723 113.21 17.0562 113.2 17.2401C113.236 17.4314 113.226 17.6287 113.171 17.8155C113.116 18.0023 113.017 18.1734 112.883 18.3146C112.749 18.4558 112.583 18.5631 112.399 18.6277ZM115.029 18.6868C115.222 18.7131 115.418 18.6931 115.602 18.6286C115.786 18.564 115.952 18.4567 116.086 18.3155C116.22 18.1743 116.318 18.0033 116.374 17.8164C116.429 17.6296 116.438 17.4324 116.402 17.241C116.405 17.0655 116.373 16.8912 116.307 16.7286C116.241 16.5659 116.143 16.4181 116.019 16.294C115.89 16.1641 115.735 16.0628 115.565 15.9968C115.394 15.9308 115.211 15.9015 115.029 15.9109C114.647 15.897 114.275 16.0348 113.995 16.294C113.867 16.4255 113.767 16.5818 113.701 16.7533C113.635 16.9248 113.605 17.108 113.612 17.2916C113.598 17.6733 113.736 18.0449 113.995 18.3253C114.134 18.4529 114.297 18.5508 114.475 18.6129C114.652 18.6751 114.841 18.7002 115.029 18.6868ZM134.749 29.9482C135.72 29.9663 136.66 29.6089 137.373 28.9506C137.764 28.5665 138.069 28.1035 138.267 27.5925C138.465 27.0814 138.552 26.5341 138.522 25.9868V20.5506L135.855 21.9458V25.8639C135.894 26.2876 135.772 26.7104 135.515 27.0494C135.193 27.3057 134.783 27.4275 134.373 27.3892H132.927C132.511 27.4243 132.096 27.3032 131.763 27.0494C131.506 26.7104 131.385 26.2876 131.424 25.8639V21.1L128.763 22.5458V25.8928C128.803 26.3032 128.693 26.7141 128.453 27.0494C128.13 27.3057 127.721 27.4275 127.31 27.3892H125.865C125.454 27.429 125.044 27.3071 124.722 27.0494C124.465 26.7104 124.344 26.2876 124.383 25.8639V21.6711L121.715 23.0663V25.8639C121.756 26.2901 121.629 26.7156 121.361 27.0494C121.036 27.3069 120.624 27.4286 120.212 27.3892H117.32C116.91 27.429 116.5 27.3071 116.178 27.0494C115.921 26.7104 115.799 26.2876 115.838 25.8639V20.5506L113.171 21.9458V25.8639C113.209 26.2876 113.088 26.7104 112.831 27.0494C112.509 27.3071 112.099 27.429 111.689 27.3892H109.151C108.741 27.429 108.331 27.3071 108.009 27.0494C107.752 26.7104 107.631 26.2876 107.669 25.8639V20.5506L105.002 21.9458V25.8639C105.042 26.2867 104.924 26.7094 104.669 27.0494C104.344 27.3069 103.933 27.4286 103.52 27.3892H100.983C100.572 27.429 100.162 27.3071 99.8403 27.0494C99.58 26.7121 99.4584 26.2879 99.5006 25.8639V16.2927L96.8331 17.6879V25.9868C96.7894 26.9788 97.1138 27.9519 97.744 28.7193C98.1174 29.1351 98.5797 29.4615 99.0966 29.6742C99.6134 29.887 100.172 29.9806 100.73 29.9482H103.773C104.696 29.9821 105.602 29.6904 106.332 29.1241C107.062 29.6904 107.968 29.9821 108.891 29.9482H111.934C112.858 29.9846 113.765 29.6926 114.493 29.1241C115.226 29.6914 116.134 29.9832 117.06 29.9482H120.501C121.443 29.983 122.361 29.6483 123.06 29.0157C123.744 29.6343 124.639 29.9679 125.561 29.9482H127.657C128.102 29.9617 128.544 29.8861 128.959 29.7259C129.373 29.5658 129.752 29.3243 130.072 29.0157C130.771 29.6483 131.689 29.983 132.631 29.9482H134.749ZM93.0297 28.6317C93.089 30.0849 92.5986 31.5071 91.6562 32.6148C91.2503 33.0857 90.7443 33.4599 90.1753 33.7101C89.6062 33.9602 88.9884 34.08 88.367 34.0606C87.454 34.0563 86.5566 33.8226 85.7574 33.3811V31.0534C86.4146 31.4433 87.162 31.655 87.9261 31.6679C88.264 31.6865 88.6018 31.6278 88.9138 31.4963C89.2257 31.3648 89.5035 31.1639 89.7261 30.9088C90.193 30.3217 90.4272 29.5831 90.3839 28.8341V21.9955L93.0297 20.5498V28.6317ZM83.3699 29.7076C82.8736 29.8888 82.3463 29.9698 81.8185 29.9459H81.6016C81.007 29.9725 80.4141 29.8633 79.868 29.6266C79.3218 29.3898 78.8368 29.0318 78.4498 28.5796C77.7846 27.7359 77.4436 26.6819 77.4883 25.6085C77.4665 24.4075 77.854 23.2348 78.5871 22.2832C79.3974 21.2838 80.4911 20.553 81.7245 20.1868C83.0263 20.5708 84.1696 21.3643 84.9847 22.4494C85.6534 23.3652 86.0038 24.4748 85.9823 25.6085C86.0146 26.2144 85.9179 26.8203 85.6986 27.3861C85.4793 27.9518 85.1423 28.4646 84.71 28.8904C84.3217 29.2487 83.8662 29.5265 83.3699 29.7076ZM82.9506 23.9518C82.6626 23.4308 82.2323 23.0025 81.71 22.7169V22.688C81.1977 22.9774 80.7778 23.406 80.4989 23.9241C80.22 24.4422 80.0935 25.0287 80.1341 25.6157C80.1341 26.8157 80.5968 27.4157 81.5799 27.4157H81.8546C82.845 27.4157 83.3365 26.8302 83.3365 25.6591C83.3725 25.0649 83.2386 24.4727 82.9506 23.9518Z" fill="#30B0C7"/>
<path fill-rule="evenodd" clip-rule="evenodd" d="M139.981 43.3165C140.509 43.0044 141.116 42.8602 141.726 42.9026C143.779 42.9026 145 44.294 145 46.4471V52.5473H143.077V46.8279C143.077 45.4291 142.383 44.5943 141.032 44.5943C140.714 44.582 140.397 44.6391 140.103 44.7618C139.808 44.8845 139.544 45.0699 139.326 45.3053C139.109 45.5408 138.944 45.8208 138.843 46.1265C138.742 46.4322 138.707 46.7563 138.74 47.0769V52.5107H136.825V39.5266H138.726V44.6529H138.769C139.032 44.0943 139.454 43.6287 139.981 43.3165ZM85.6504 52.5475H77.4746V39.5269H85.6504V41.2673H79.4714V45.0715H85.3164V46.7532H79.4714V50.7923H85.6504V52.5475ZM90.3492 46.7748L91.8973 47.1447C93.7437 47.5654 94.4396 48.2834 94.4325 49.647C94.4325 51.3731 92.785 52.5481 90.619 52.5481C88.4531 52.5481 87.0115 51.4021 86.8624 49.6832H88.7301C88.8792 50.5826 89.5893 51.0758 90.7114 51.0758C91.8334 51.0758 92.5435 50.5681 92.5435 49.8428C92.5435 49.2408 92.1956 48.9144 91.2298 48.6606L89.5893 48.2544C87.9347 47.8265 87.0968 46.9634 87.0968 45.6507C87.0968 43.9753 88.6093 42.8583 90.6688 42.8583C92.7282 42.8583 94.1555 44.026 94.2194 45.6869H92.4441C92.3589 44.8456 91.6274 44.3161 90.6332 44.3161C89.639 44.3161 88.9289 44.8383 88.9289 45.5636C88.9289 46.1439 89.3976 46.5355 90.3492 46.7748ZM98.6857 40.7374H96.7222V42.9804H95.3397V44.5197H96.7222V49.9879C96.7222 51.8204 97.4576 52.5461 99.399 52.5461C99.7614 52.552 100.123 52.5226 100.48 52.4581V50.9188C100.268 50.947 100.054 50.9617 99.8402 50.9628C99.046 50.9628 98.6857 50.5963 98.6857 49.7754V44.549H100.487V43.0097H98.6857V40.7374ZM101.396 47.7466C101.396 44.8107 103.086 42.8583 105.711 42.8583C108.285 42.8583 109.896 44.6878 109.874 47.5514V48.2094H103.309V48.3251C103.309 49.9521 104.279 51.0223 105.811 51.0223C106.27 51.0641 106.73 50.9529 107.12 50.7059C107.51 50.4589 107.808 50.0899 107.969 49.6556H109.781C109.515 51.3333 107.94 52.5481 105.782 52.5481C103.05 52.5481 101.396 50.6824 101.396 47.7466ZM103.516 45.9128C103.399 46.2061 103.341 46.5196 103.345 46.8355H107.99C108.008 46.5233 107.962 46.2109 107.855 45.9171C107.749 45.6234 107.584 45.3547 107.37 45.1273C107.157 44.8999 106.9 44.7186 106.614 44.5946C106.329 44.4705 106.021 44.4063 105.711 44.4058C105.396 44.4086 105.086 44.4738 104.797 44.5975C104.508 44.7212 104.246 44.9011 104.026 45.1268C103.806 45.3525 103.633 45.6196 103.516 45.9128ZM115.967 42.8648C115.352 42.8246 114.739 42.971 114.207 43.2848C113.676 43.5986 113.251 44.0655 112.987 44.6248H112.943V43.0268H111.087V52.5481H113.031V47.0032C112.997 46.689 113.03 46.3709 113.128 46.0705C113.226 45.7701 113.387 45.4944 113.601 45.2619C113.815 45.0294 114.075 44.8457 114.366 44.7231C114.656 44.6005 114.97 44.5418 115.285 44.5511C116.635 44.5511 117.303 45.339 117.303 46.7602V52.5407H119.262V46.3773C119.262 44.205 118.081 42.8648 115.967 42.8648ZM121.164 45.7985C121.268 44.1039 122.75 42.8583 125.133 42.8583C127.463 42.8583 128.953 44.0605 128.953 45.9361V52.5481H127.061V50.8462H126.987C126.687 51.3649 126.25 51.7961 125.721 52.0954C125.192 52.3946 124.591 52.5509 123.979 52.5481C122.095 52.5481 120.777 51.3749 120.777 49.7309C120.777 48.087 122.065 47.0876 124.351 46.9573L126.987 46.8124V46.0882C126.987 45.0454 126.265 44.4226 125.058 44.4226C124.605 44.3662 124.145 44.4758 123.77 44.73C123.394 44.9842 123.129 45.365 123.026 45.7985H121.164ZM126.776 49.755C126.906 49.4812 126.978 49.1849 126.987 48.8836V48.1739L124.619 48.3187C123.443 48.3984 122.772 48.8836 122.772 49.702C122.772 50.5203 123.465 51.0562 124.53 51.0562C124.839 51.0758 125.149 51.0346 125.442 50.9351C125.734 50.8356 126.003 50.6799 126.232 50.4771C126.462 50.2744 126.647 50.0288 126.776 49.755ZM132.675 44.648H132.623V43.0283H130.769V52.5481H132.719V46.8495C132.682 46.5657 132.707 46.2774 132.794 46.0047C132.88 45.732 133.024 45.4816 133.217 45.2711C133.41 45.0605 133.646 44.895 133.91 44.7861C134.173 44.6772 134.457 44.6275 134.741 44.6407C135.036 44.6309 135.33 44.6656 135.614 44.7438V42.9252C135.394 42.885 135.17 42.8628 134.947 42.8589C134.42 42.8465 133.906 43.0181 133.491 43.3444C133.077 43.6707 132.788 44.1315 132.675 44.648Z" fill="#30B0C7"/>
</svg>
